# xmcd CD database file
# Generated: Tue Jul 1 18:59:10 2003 by KSCD
# 
# Track frame offsets:
#       150
#       19685
#       40905
#       60152
#       80120
#       108192
#       125833
#       153668
#       174621
#       202077
#
# Disc length: 2965 seconds
#
# Revision: 12
# Processed by: cddbd v1.4PL0 Copyright (c) Steve Scherf et al.
# Submitted via: Kscd 1.3.3
#
DISCID=850b930a
DTITLE=Iwan Fals - In Collaboration With
DYEAR=1900
DGENRE=
TTITLE0=Aku Bukan Pilhan
TTITLE1=Senandung Lirih
TTITLE2=Rinduku
TTITLE3=Hadapi Saja
TTITLE4=Sesuatu Yang Tertunda (feat. Padi)
TTITLE5=Sudah Berlalu
TTITLE6=Kupu-Kupu Hitam Putih
TTITLE7=Suara Hati
TTITLE8=Belalang Tua
TTITLE9=Ancur
EXTD=Amad\t\t
EXTT0=
EXTT1=
EXTT2=Amad
EXTT3=Amad
EXTT4=
EXTT5=Amad
EXTT6=Amad
EXTT7=Amad
EXTT8=Amad
EXTT9=Amad
PLAYORDER=
